<?xml version="1.0" encoding="utf-8"?>
<!-- Generator: Adobe Illustrator 25.2.0, SVG Export Plug-In . SVG Version: 6.00 Build 0)  -->
<svg version="1.1" id="Layer_1" xmlns="http://www.w3.org/2000/svg" xmlns:xlink="http://www.w3.org/1999/xlink" x="0px" y="0px"
	 viewBox="0 0 2000 2000" style="enable-background:new 0 0 2000 2000;" xml:space="preserve">
<style type="text/css">
	.st0{fill:#8AC43F;}
	.st1{fill:#333333;}
	.st2{display:none;}
	.st3{fill:#FFFFFF;}
	.st4{fill:#25CC7C;}
	.st5{fill:#CFFDBC;}
</style>
<rect x="0" class="st0" width="2000" height="2000"/>
<g>
	<g>
		<path class="st3" d="M807.53,954.03c-9.72-5-20.94-7.5-33.66-7.5h-50.29v119.32h50.29c12.72,0,23.95-2.5,33.66-7.5
			c9.72-5,17.27-11.99,22.67-20.97c5.4-8.98,8.1-19.37,8.1-31.19c0-11.82-2.7-22.22-8.1-31.19
			C824.8,966.02,817.25,959.03,807.53,954.03z M815.29,1029.63c-3.98,6.76-9.58,12.02-16.79,15.77c-7.22,3.75-15.77,5.62-25.65,5.62
			h-32.22v-89.66h32.22c9.89,0,18.44,1.87,25.65,5.62c7.21,3.75,12.81,8.98,16.79,15.68c3.98,6.71,5.97,14.55,5.97,23.52
			C821.25,1015.05,819.26,1022.87,815.29,1029.63z"/>
		<path class="st3" d="M919.09,946.53l-54.04,119.32h17.56l13.11-29.83h63.44l13.11,29.83h17.9l-54.2-119.32H919.09z
			 M901.72,1022.38l25.73-58.55l25.73,58.55H901.72z"/>
		<polygon class="st3" points="1005.18,961.36 1046.09,961.36 1046.09,1065.85 1062.96,1065.85 1062.96,961.36 1103.87,961.36 
			1103.87,946.53 1005.18,946.53 		"/>
		<polygon class="st3" points="1159.95,1012.5 1219.78,1012.5 1219.78,998.01 1159.95,998.01 1159.95,961.36 1227.11,961.36 
			1227.11,946.53 1142.91,946.53 1142.91,1065.85 1229.5,1065.85 1229.5,1051.02 1159.95,1051.02 		"/>
		<path class="st3" d="M1270.24,961.36h43.13v66.99c0,16.14-6.82,24.2-20.46,24.2c-5,0-9.57-1.22-13.72-3.66
			c-4.15-2.44-7.87-5.94-11.17-10.48l-9.89,11.59c3.86,5.57,8.86,9.83,15,12.79c6.14,2.96,12.72,4.43,19.77,4.43
			c12.27,0,21.56-3.29,27.87-9.89c6.31-6.59,9.46-16.53,9.46-29.83v-80.97h-60V961.36z"/>
		<path class="st3" d="M1484.59,962.47c-5.74-5.51-12.44-9.77-20.11-12.79c-7.67-3.01-16.05-4.52-25.14-4.52
			c-9.2,0-17.67,1.53-25.4,4.6c-7.73,3.07-14.43,7.36-20.11,12.87c-5.68,5.51-10.12,11.96-13.3,19.35
			c-3.18,7.39-4.77,15.46-4.77,24.21c0,8.75,1.59,16.82,4.77,24.2c3.18,7.39,7.61,13.84,13.3,19.35c5.68,5.51,12.41,9.8,20.2,12.87
			c7.78,3.07,16.22,4.6,25.31,4.6c9.09,0,17.47-1.5,25.14-4.52c7.67-3.01,14.38-7.27,20.11-12.78c5.74-5.51,10.17-11.96,13.29-19.35
			c3.13-7.39,4.69-15.51,4.69-24.38s-1.56-16.99-4.69-24.38C1494.76,974.43,1490.32,967.98,1484.59,962.47z M1482.03,1024.43
			c-2.33,5.57-5.57,10.43-9.72,14.57c-4.15,4.15-9.03,7.36-14.66,9.63c-5.63,2.27-11.73,3.41-18.33,3.41
			c-6.71,0-12.87-1.13-18.49-3.41c-5.62-2.27-10.54-5.48-14.74-9.63c-4.21-4.15-7.47-9-9.8-14.57c-2.33-5.57-3.49-11.65-3.49-18.24
			c0-6.59,1.16-12.67,3.49-18.24c2.33-5.57,5.6-10.42,9.8-14.57c4.2-4.15,9.12-7.36,14.74-9.63c5.63-2.27,11.79-3.41,18.49-3.41
			c6.59,0,12.7,1.14,18.33,3.41c5.62,2.27,10.51,5.48,14.66,9.63c4.15,4.15,7.39,9.01,9.72,14.57c2.33,5.57,3.49,11.65,3.49,18.24
			C1485.53,1012.78,1484.36,1018.86,1482.03,1024.43z"/>
		<polygon class="st3" points="1530.19,946.53 1530.19,961.36 1571.1,961.36 1571.1,1065.85 1587.97,1065.85 1587.97,961.36 
			1628.88,961.36 1628.88,946.53 		"/>
	</g>
	<g>
		<path class="st3" d="M391.2,1018.9l-12.01,7.83V925.95c0-28.04,22.81-50.85,50.88-50.85h5.14v-17.83h18.69v17.83h119.16v-17.83
			h18.69v17.83h4.21c22.84,0,42.22,15.13,48.62,35.9c-0.65,0.74-1.21,1.61-1.64,2.54l-4.74,10.21l-3.59-1.64
			c-1.95-19.62-18.54-35.01-38.66-35.01h-4.21v19.81c1.18,1.76,1.86,3.9,1.86,6.19c0,6.19-5.01,11.2-11.2,11.2
			c-6.19,0-11.24-5.01-11.24-11.2c0-2.29,0.71-4.43,1.89-6.19v-19.81H453.9v19.81c1.18,1.76,1.86,3.9,1.86,6.19
			c0,6.19-5.01,11.2-11.2,11.2c-6.22,0-11.23-5.01-11.23-11.2c0-2.29,0.68-4.43,1.89-6.19v-19.81h-5.14
			c-21.45,0-38.87,17.43-38.87,38.84v10.83h233.49l-5.54,12.01H391.2V1018.9z"/>
		<path class="st3" d="M646.82,1004.91v89.76c0,26.49-21.54,48.07-48.07,48.07H430.78l9.1-12.01h158.87
			c19.87,0,36.06-16.19,36.06-36.06v-84.46l7.89,3.65L646.82,1004.91z"/>
		<polygon class="st3" points="562.83,1091.47 562.78,1117.43 581.32,1100.01 		"/>
		<polygon class="st3" points="625.42,1010.32 602.27,999.62 563.31,1086.69 584.77,1096.61 		"/>
		<path class="st3" d="M654.2,934.2l5.88-12.73c1.23-2.67,0.07-5.82-2.6-7.06l-2.45-1.13c-2.67-1.23-5.82-0.07-7.06,2.6l-5.88,12.73
			L654.2,934.2z"/>
		<polygon class="st3" points="639.99,1006.48 665.08,952.17 654.71,947.38 658.45,939.23 634.72,928.27 603.29,996.54 
			627.1,1007.54 652.29,952.65 657.38,955 634.72,1004.04 		"/>
		<polygon class="st3" points="433.65,1083.48 400.98,1025.47 371.12,1044.94 420.46,1110.85 430.85,1124.74 440.36,1112.2 
			558.38,956.64 		"/>
	</g>
</g>
</svg>
