<?xml version="1.0" encoding="utf-8"?>
<!-- Generator: Adobe Illustrator 25.2.0, SVG Export Plug-In . SVG Version: 6.00 Build 0)  -->
<svg version="1.1" id="Layer_1" xmlns="http://www.w3.org/2000/svg" xmlns:xlink="http://www.w3.org/1999/xlink" x="0px" y="0px"
	 viewBox="0 0 2000 2000" style="enable-background:new 0 0 2000 2000;" xml:space="preserve">
<style type="text/css">
	.st0{fill:#8AC43F;}
	.st1{fill:#333333;}
	.st2{display:none;}
	.st3{fill:#FFFFFF;}
	.st4{fill:#25CC7C;}
	.st5{fill:#CFFDBC;}
</style>
<rect class="st2" width="2000" height="2000"/>
<g>
	<g>
		<path class="st4" d="M658.03,1352.53c33.54,0,51.59,25.42,51.59,52.19c0.45,26.93-17.6,52.95-51.59,52.95h-39.11v-105.14H658.03z
			 M657.72,1437.36c19.4,0,29.48-15.64,29.48-32.49c0-16.84-10.37-32.04-29.48-32.04h-16.4v64.53H657.72z"/>
		<path class="st4" d="M761.76,1440.22l-8.12,17.45h-23.47v-3.01l48.44-103.19h10.37l48.13,103.19v3.01H813.8l-8.27-17.45H761.76z
			 M769.13,1421.27h29.18l-14.59-34.75L769.13,1421.27z"/>
		<path class="st4" d="M849.25,1371.93v-19.56h77.91v19.56h-27.98v85.74h-21.81v-85.74H849.25z"/>
		<path class="st4" d="M1024.6,1372.08h-41.81v21.36h39.11v19.7h-39.11v24.07h43.02v20.46h-65.73v-105.29h64.53V1372.08z"/>
		<path class="st4" d="M1135.41,1422.77c0,22.86-18.5,36.4-40.31,36.4s-39.26-13.54-39.26-36.4v-12.78h20.91v12.33
			c0,11.28,7.67,16.85,18.35,16.85c10.68,0,17.75-5.87,17.75-16.85v-50.54h-18.8v-19.41h41.37V1422.77z"/>
		<path class="st4" d="M1224.56,1459.47c-28.13,0-53.55-18.95-53.55-54.45s26.02-54.3,54-54.3c27.53,0,53.55,18.95,53.55,54.3
			C1278.56,1437.06,1256.45,1459.47,1224.56,1459.47z M1224.86,1438.86c16.39,0,31.28-10.83,31.28-33.84
			c0-22.42-14.74-33.54-31.14-33.54c-16.55,0-31.29,11.28-31.29,33.54C1193.72,1428.03,1208.01,1438.86,1224.86,1438.86z"/>
		<path class="st4" d="M1303.17,1371.93v-19.56h77.91v19.56h-27.98v85.74h-21.81v-85.74H1303.17z"/>
	</g>
	<g>
		<g>
			<path class="st4" d="M1074.66,851.08c-0.42,11.7-1.88,23.08-4.49,33.94c-2.19,9.61-5.33,18.9-9.19,27.88
				c-9.19,21.41-21.83,40.2-38.01,56.29c-16.08,16.19-34.88,28.82-56.39,38.01c-21.51,9.19-44.59,13.78-69.13,13.78H722.33v33.94
				h175.12c29.14,0,56.49-5.53,82.08-16.71c25.48-11.07,47.83-26.21,67.04-45.43c19.21-19.21,34.36-41.56,45.53-67.15
				c5.74-13.05,9.92-26.63,12.74-40.62c2.19-10.97,3.45-22.35,3.86-33.94H1074.66z M1101.19,787.06h-35.51
				c3.76,10.96,6.37,22.24,7.73,34.04h34.25C1106.52,809.41,1104.32,798.13,1101.19,787.06z M1095.03,768.58
				c-0.84-2.51-1.88-4.91-2.92-7.31c-11.17-25.79-26.32-48.14-45.53-67.15s-41.56-34.04-67.04-45.22
				c-25.58-11.17-52.94-16.71-82.08-16.71H722.33v357.14h175.12c19.95,0,38.85-3.86,56.7-11.59c17.86-7.62,33.42-17.96,46.68-31.02
				c13.26-13.05,23.71-28.51,31.43-46.16c2.19-5.12,4.07-10.23,5.64-15.56c3.24-10.86,5.12-22.14,5.64-33.94h-34.04
				c-0.84,11.8-3.45,23.18-7.94,33.94c-0.21,0.52-0.52,1.15-0.73,1.67c-5.95,13.58-13.89,25.48-23.91,35.61
				c-10.03,10.13-21.93,18.17-35.71,24.12c-13.78,5.95-28.4,8.88-43.75,8.88h-77.17v-224h77.17c15.35,0,29.97,2.92,43.75,8.88
				c13.78,5.95,25.69,13.89,35.71,23.81c1.46,1.46,2.92,3.03,4.18,4.59h41.88c-6.27-10.44-13.58-19.84-22.14-28.4
				c-13.26-13.26-28.82-23.71-46.68-31.33c-17.86-7.73-36.76-11.59-56.7-11.59H786.24v258.04h-29.87V666.14h141.39
				c24.54,0,47.51,4.8,69.03,14.1c21.41,9.4,40.2,22.14,56.29,38.33c14.52,14.51,26.21,31.22,35.09,50.02H1095.03z M1000.83,799.59
				c3.03,7,5.22,14.1,6.68,21.51h34.46c-1.67-11.7-5.01-23.08-9.61-34.04h-37.91C996.87,791.03,998.96,795.21,1000.83,799.59z"/>
			<path class="st4" d="M994.46,787.06c2.4,3.97,4.49,8.15,6.37,12.53c3.03,7,5.22,14.1,6.68,21.51h270.15v-34.04H994.46z
				 M1009.5,851.08c-0.84,11.8-3.45,23.18-7.94,33.94h178.15v198.72c0,8.04-2.92,14.93-8.67,20.68c-5.74,5.85-12.84,8.67-21.3,8.67
				c-8.04,0-14.93-2.82-20.68-8.67c-5.85-5.74-8.67-12.64-8.67-20.68h-34.04c0,8.77,1.67,17.02,4.91,24.75
				c3.34,7.73,7.83,14.41,13.68,20.15c5.74,5.74,12.53,10.23,20.26,13.58c7.62,3.24,15.98,4.8,24.85,4.8
				c8.88,0,17.13-1.57,24.85-4.8c7.73-3.34,14.52-7.83,20.26-13.58c5.74-5.74,10.34-12.43,13.58-20.15
				c3.34-7.73,4.91-15.98,4.91-24.75V885.02h29.97v198.72c0,13.05-2.4,25.27-7.21,36.55c-4.8,11.28-11.38,21.2-19.74,29.66
				c-8.46,8.46-18.27,15.04-29.66,19.84c-11.28,4.8-23.39,7.21-36.45,7.21c-12.95,0-25.17-2.4-36.45-7.21
				c-11.28-4.8-21.09-11.38-29.55-19.84s-15.14-18.38-20.05-29.66c-5.01-11.28-7.52-23.5-7.52-36.55h-33.94
				c0,17.65,3.34,34.15,10.03,49.5c6.68,15.35,15.87,28.82,27.36,40.31c11.49,11.59,24.96,20.68,40.31,27.36
				c15.35,6.79,31.85,10.13,49.6,10.13c17.23,0,33.52-3.24,48.87-9.5c15.35-6.37,29.03-15.66,40.94-27.99
				c24.96-24.96,37.49-54.93,37.49-89.81V851.08H1009.5z"/>
		</g>
		<path class="st4" d="M1381.09,1302.7H618.91V540.53h762.17V1302.7z M650.24,1271.37h699.52V571.86H650.24V1271.37z"/>
	</g>
</g>
</svg>
