<?xml version="1.0" encoding="utf-8"?>
<!-- Generator: Adobe Illustrator 25.2.0, SVG Export Plug-In . SVG Version: 6.00 Build 0)  -->
<svg version="1.1" id="Layer_1" xmlns="http://www.w3.org/2000/svg" xmlns:xlink="http://www.w3.org/1999/xlink" x="0px" y="0px"
	 viewBox="0 0 2000 2000" style="enable-background:new 0 0 2000 2000;" xml:space="preserve">
<style type="text/css">
	.st0{fill:#8AC43F;}
	.st1{fill:#333333;}
	.st2{display:none;}
	.st3{fill:#FFFFFF;}
	.st4{fill:#25CC7C;}
	.st5{fill:#CFFDBC;}
</style>
<rect class="st1" width="2000" height="2000"/>
<g>
	<g>
		<path class="st5" d="M503.69,1167c10.43,5.37,18.49,13.02,24.17,22.95s8.53,21.46,8.53,34.58c0,13.12-2.84,24.58-8.53,34.39
			c-5.68,9.81-13.74,17.4-24.17,22.77s-22.52,8.06-36.26,8.06h-45.73v-130.8h45.73C481.17,1158.94,493.26,1161.63,503.69,1167z
			 M498.35,1256.2c7.5-7.5,11.24-18.05,11.24-31.67c0-13.61-3.75-24.27-11.24-31.95c-7.5-7.68-18.11-11.52-31.86-11.52h-18.55v86.39
			h18.55C480.24,1267.44,490.85,1263.69,498.35,1256.2z"/>
		<path class="st5" d="M692.49,1264.82h-52.1l-8.62,24.92h-27.55l47.03-130.99h30.55l47.04,130.99h-27.74L692.49,1264.82z
			 M685.37,1243.83l-18.93-54.72l-18.93,54.72H685.37z"/>
		<path class="st5" d="M891.69,1158.94v21.18h-34.86v109.62H830.6v-109.62h-34.86v-21.18H891.69z"/>
		<path class="st5" d="M993.25,1180.12v32.79h44.04v20.8h-44.04v34.67h49.66v21.36h-75.9v-130.99h75.9v21.37H993.25z"/>
		<path class="st5" d="M1199.2,1158.94v91.82c0,12.74-3.68,22.64-11.05,29.7c-7.37,7.06-17.24,10.59-29.6,10.59
			c-12.5,0-22.58-3.62-30.27-10.87c-7.68-7.25-11.53-17.36-11.53-30.36h26.24c0.13,5.62,1.47,9.99,4.03,13.11
			c2.56,3.12,6.28,4.69,11.15,4.69c4.74,0,8.37-1.5,10.87-4.5c2.5-3,3.75-7.12,3.75-12.37v-91.82H1199.2z"/>
		<path class="st5" d="M1312.94,1282.43c-10.24-5.75-18.36-13.71-24.36-23.89c-6-10.18-9-21.7-9-34.58c0-12.74,3-24.2,9-34.38
			c6-10.18,14.12-18.15,24.36-23.89c10.24-5.75,21.49-8.63,33.73-8.63c12.37,0,23.64,2.88,33.82,8.63
			c10.18,5.75,18.24,13.71,24.18,23.89c5.93,10.18,8.9,21.64,8.9,34.38c0,12.87-2.97,24.39-8.9,34.58
			c-5.93,10.18-14.02,18.15-24.27,23.89c-10.24,5.75-21.49,8.62-33.73,8.62S1323.19,1288.18,1312.94,1282.43z M1367.48,1262.28
			c6-3.56,10.68-8.65,14.05-15.27c3.38-6.62,5.06-14.3,5.06-23.05c0-8.74-1.69-16.4-5.06-22.95c-3.37-6.56-8.06-11.59-14.05-15.08
			c-6-3.5-12.93-5.25-20.8-5.25c-7.87,0-14.83,1.75-20.89,5.25c-6.06,3.49-10.77,8.52-14.15,15.08c-3.37,6.56-5.06,14.21-5.06,22.95
			c0,8.75,1.69,16.43,5.06,23.05c3.38,6.62,8.09,11.72,14.15,15.27c6.06,3.56,13.03,5.34,20.89,5.34
			C1354.55,1267.63,1361.48,1265.85,1367.48,1262.28z"/>
		<path class="st5" d="M1578.29,1158.94v21.18h-34.86v109.62h-26.24v-109.62h-34.86v-21.18H1578.29z"/>
	</g>
	<g>
		<g>
			<path class="st5" d="M1094.94,732.94h-5.67v-24h-25.18v24H903.41v-24h-25.18v24h-6.92c-37.83,0-68.58,30.8-68.58,68.58V1029
				c0,35.72,29.02,64.8,64.8,64.8h189.69c-17.02-2.32-33.07-7.94-47.4-16.21h-80.69V1027h30.64c-2.81-4.97-5.24-10.16-7.35-15.56
				c-0.11-0.22-0.16-0.43-0.27-0.65h-23.02v-81.12h18c1.41-5.35,3.03-10.54,5.08-15.56c0.11-0.22,0.16-0.43,0.27-0.65h-23.35v-81.12
				h107.93v3.35c3.03-0.92,6.05-1.73,9.13-2.38c9.46-2.16,19.29-3.3,29.4-3.3c4.76,0,9.46,0.27,14.05,0.76h0.16
				c3.51,0.38,6.97,0.92,10.43,1.57h47.07v14.11l16,10.16c0.05-0.05,0.16,0,0.22,0.11v-55.18
				C1163.52,763.75,1132.77,732.94,1094.94,732.94z M912.97,1077.58h-45.45c-26.81,0-48.64-21.83-48.64-48.59v-2h94.09V1077.58z
				 M912.97,1010.78h-94.09v-81.12h94.09V1010.78z M912.97,913.45h-94.09v-81.12h94.09V913.45z M818.88,816.12v-14.59
				c0-28.86,23.51-52.37,52.42-52.37h6.92v26.7c-1.62,2.43-2.54,5.3-2.54,8.38c0,8.32,6.76,15.13,15.13,15.13
				c8.32,0,15.13-6.81,15.13-15.13c0-3.08-0.97-5.95-2.54-8.38v-26.7h160.67v26.7c-1.62,2.43-2.54,5.3-2.54,8.38
				c0,8.32,6.76,15.13,15.13,15.13c8.32,0,15.13-6.81,15.13-15.13c0-3.08-0.97-5.95-2.54-8.38v-26.7h5.67
				c28.86,0,52.37,23.51,52.37,52.37v14.59H818.88z"/>
			<g>
				<path class="st5" d="M1151.47,832.98h-42.1c13.51,2.54,26.27,7.08,37.94,13.46c3.13,1.62,6.16,3.46,9.13,5.35v-16.16
					C1154.82,834.65,1153.14,833.74,1151.47,832.98z M1017.98,832.98c-32.7,16.75-58.26,45.51-70.96,80.47
					c-0.11,0.22-0.22,0.43-0.27,0.65h14.86c14.81-37.13,45.99-65.99,84.58-77.77v-3.35H1017.98z M1037.06,835.68v-2.7h-19.08
					c-32.7,16.75-58.26,45.51-70.96,80.47h5.46c-0.11,0.22-0.16,0.43-0.27,0.65c-2.05,5.03-3.67,10.21-5.08,15.56h-4.92
					c-0.05,0.22-0.11,0.43-0.16,0.65c-2.49,10.59-3.78,21.62-3.78,32.91c0,16.65,2.81,32.64,8,47.56c0.05,0.22,0.16,0.43,0.22,0.65
					h14.81c-5.89-14.97-9.13-31.18-9.13-48.21c0-11.35,1.41-22.37,4.11-32.91c1.46-5.57,3.19-10.97,5.35-16.21
					c14.81-37.13,45.99-65.99,84.58-77.77v-3.03C1043.11,833.95,1040.08,834.76,1037.06,835.68z M1105.53,832.33
					c1.3,0.16,2.59,0.43,3.84,0.65c13.51,2.54,26.27,7.08,37.94,13.46v-14.11H1105.53z M1046.19,833.3v3.03
					c12.21-3.67,25.13-5.67,38.53-5.67c1.68,0,3.3,0.05,4.92,0.11c-4.59-0.49-9.3-0.76-14.05-0.76
					C1065.49,830.01,1055.65,831.14,1046.19,833.3z M1172.65,846.22c-2.97-2.22-6-4.38-9.13-6.38c-2.32-1.46-4.65-2.86-7.08-4.22
					c-1.62-0.97-3.3-1.89-4.97-2.65c-20.05-10.38-42.69-16.21-66.74-16.21c-23.45,0-45.72,5.57-65.45,15.56
					c-0.43,0.22-0.86,0.43-1.3,0.65c-32.7,16.75-58.26,45.51-70.96,80.47c-0.11,0.22-0.22,0.43-0.27,0.65
					c-1.84,5.08-3.35,10.27-4.54,15.56c-0.05,0.22-0.11,0.43-0.16,0.65c-2.49,10.59-3.78,21.62-3.78,32.91
					c0,16.65,2.81,32.64,8,47.56c0.05,0.22,0.16,0.43,0.22,0.65c1.84,5.35,4,10.54,6.54,15.56c0.11,0.22,0.22,0.43,0.32,0.65
					c9.46,19.51,23.29,36.53,40.15,49.94c0.22,0.27,0.49,0.43,0.76,0.65c7.57,6,15.73,11.24,24.43,15.56
					c0.38,0.22,0.81,0.43,1.24,0.65c19.56,9.73,41.56,15.19,64.8,15.19c80.74,0,146.4-65.66,146.4-146.4
					C1231.13,915.45,1208.16,872.97,1172.65,846.22z M1150.82,1078.01c-14.43,8.38-30.53,14.05-47.72,16.43
					c-6,0.86-12.16,1.3-18.38,1.3c-6.21,0-12.38-0.43-18.37-1.3c-17.02-2.32-33.07-7.94-47.4-16.21
					c-20.91-12-38.26-29.51-50.04-50.58c-2.92-5.19-5.46-10.59-7.62-16.21c-5.89-14.97-9.13-31.18-9.13-48.21
					c0-11.35,1.41-22.37,4.11-32.91c1.46-5.57,3.19-10.97,5.35-16.21c14.81-37.13,45.99-65.99,84.58-77.77
					c12.21-3.67,25.13-5.67,38.53-5.67c1.68,0,3.3,0.05,4.92,0.11h0.16c5.35,0.22,10.59,0.7,15.73,1.57
					c1.3,0.16,2.59,0.43,3.84,0.65c13.51,2.54,26.27,7.08,37.94,13.46c3.13,1.62,6.16,3.46,9.13,5.35c2.32,1.51,4.65,3.08,6.86,4.81
					c0.05-0.05,0.16,0,0.22,0.11c3.13,2.32,6.22,4.76,9.13,7.4c27.35,24.27,44.64,59.72,44.64,99.12
					C1217.29,1012.24,1190.54,1055.1,1150.82,1078.01z M1075.59,830.01c-10.11,0-19.94,1.14-29.4,3.3v3.03
					c12.21-3.67,25.13-5.67,38.53-5.67c1.68,0,3.3,0.05,4.92,0.11C1085.05,830.28,1080.35,830.01,1075.59,830.01z M1105.53,832.33
					c1.3,0.16,2.59,0.43,3.84,0.65c13.51,2.54,26.27,7.08,37.94,13.46v-14.11H1105.53z"/>
				<g>
					<polygon class="st5" points="1174.28,884.1 1164.98,893.4 1160.12,888.48 1156.44,884.81 1155.2,883.56 1164.49,874.27 
						1172.65,882.48 					"/>
					
						<rect x="998.16" y="1036.95" transform="matrix(0.7071 -0.7071 0.7071 0.7071 -443.8572 1016.1974)" class="st5" width="13.13" height="13.86"/>
				</g>
				<g>
					<polygon class="st5" points="1174.28,1043.64 1164.49,1053.42 1159.63,1048.56 1155.2,1044.13 1160.76,1038.62 
						1164.98,1034.35 					"/>
					
						<rect x="997.8" y="877.28" transform="matrix(0.7071 -0.7071 0.7071 0.7071 -330.6913 969.4058)" class="st5" width="13.86" height="13.13"/>
				</g>
				<g>
					<rect x="1191.34" y="956.93" class="st5" width="13.13" height="13.86"/>
					<rect x="965.02" y="956.93" class="st5" width="13.13" height="13.86"/>
				</g>
				<g>
					<rect x="1077.82" y="844.14" class="st5" width="13.86" height="13.13"/>
					<rect x="1077.83" y="1070.46" class="st5" width="13.84" height="13.13"/>
				</g>
				<polygon class="st5" points="1145.15,956.26 1145.15,970.15 1077.82,970.15 1077.82,886.26 1091.7,886.26 1091.7,956.26 				"/>
			</g>
		</g>
		<polygon class="st5" points="1084.7,866.31 1076.35,880.77 1093.05,880.77 		"/>
		<polygon class="st5" points="1164.47,962.8 1150.01,954.45 1150.01,971.15 		"/>
	</g>
</g>
</svg>
